<svg id="Layer_1" enable-background="new 0 0 256 256" height="512" viewBox="0 0 256 256" width="512" xmlns="http://www.w3.org/2000/svg"><g><path d="m222.87 45.731v120.67c0 2.761-2.239 5-5 5h-5.69c-.22-9.31-7.83-16.79-17.19-16.79s-16.98 7.48-17.2 16.79h-32.6c-.22-9.31-7.83-16.79-17.19-16.79s-16.97 7.48-17.19 16.79h-32.6c-.22-9.31-7.84-16.79-17.2-16.79s-16.97 7.48-17.19 16.79h-5.69c-2.761 0-5-2.239-5-5v-120.67z" fill="#72c1e8"/><g fill="#c5e5ff"><path d="m182.45 162.531h-41.92c-1.381 0-2.5-1.119-2.5-2.5s1.119-2.5 2.5-2.5h41.92c1.381 0 2.5 1.119 2.5 2.5s-1.119 2.5-2.5 2.5z"/><path d="m210.86 162.531h-3.34c-1.381 0-2.5-1.119-2.5-2.5s1.119-2.5 2.5-2.5h.84v-98.2c0-1.381 1.119-2.5 2.5-2.5s2.5 1.119 2.5 2.5v100.7c0 1.381-1.119 2.5-2.5 2.5z"/><path d="m115.47 162.531h-41.92c-1.381 0-2.5-1.119-2.5-2.5s1.119-2.5 2.5-2.5h41.92c1.381 0 2.5 1.119 2.5 2.5s-1.119 2.5-2.5 2.5z"/></g><path d="m61.01 154.611c-9.36 0-16.97 7.48-17.19 16.79-.603 8.43 6.735 17.62 17.19 17.62 10.469 0 17.798-9.207 17.2-17.62-.22-9.31-7.84-16.79-17.2-16.79z" fill="#ffb69f"/><path d="m212.18 171.401c-.22-9.31-7.83-16.79-17.19-16.79s-16.98 7.48-17.2 16.79c-.6 8.447 6.757 17.62 17.2 17.62 10.368 0 17.798-9.112 17.19-17.62z" fill="#ffb69f"/><path d="m128 154.611c-9.36 0-16.97 7.48-17.19 16.79-.603 8.43 6.735 17.62 17.19 17.62 10.368 0 17.798-9.112 17.19-17.62-.22-9.31-7.83-16.79-17.19-16.79z" fill="#ffb69f"/><path d="m59.986 61.688h136.03v78.112h-136.03z" fill="#f0c020"/><path d="m184.69 131.052h-8.515c-1.381 0-2.5-1.119-2.5-2.5s1.119-2.5 2.5-2.5h8.515c1.381 0 2.5 1.119 2.5 2.5s-1.119 2.5-2.5 2.5zm-18.514 0h-95.724c-1.381 0-2.5-1.119-2.5-2.5v-54.277c0-1.381 1.119-2.5 2.5-2.5s2.5 1.119 2.5 2.5v51.776h93.224c1.381 0 2.5 1.119 2.5 2.5s-1.119 2.501-2.5 2.501z" fill="#f9e5af"/><path d="m222.87 13.513v32.218h-189.74v-32.218c0-2.761 2.239-5 5-5h179.74c2.761 0 5 2.238 5 5z" fill="#afafaf"/><circle cx="54.644" cy="27.122" fill="#fc5d3d" r="6.446"/><circle cx="79.499" cy="27.122" fill="#f0c020" r="6.446"/><circle cx="104.354" cy="27.122" fill="#13bf6d" r="6.446"/><path d="m67.341 189.022h-12.66c-15.022 0-27.165 12.17-27.165 27.165v31.302h66.989v-31.302c0-14.995-12.142-27.165-27.164-27.165z" fill="#fc5d3d"/><path d="m134.33 189.022h-12.66c-15.022 0-27.165 12.17-27.165 27.165v31.302h66.989v-31.302c.001-14.995-12.142-27.165-27.164-27.165z" fill="#fc5d3d"/><path d="m201.319 189.022h-12.659c-15.022 0-27.165 12.17-27.165 27.165v31.302h66.989v-31.302c0-14.995-12.143-27.165-27.165-27.165z" fill="#fc5d3d"/><path d="m216.663 241.914h-6.785c-1.381 0-2.5-1.119-2.5-2.5s1.119-2.5 2.5-2.5h6.785c1.381 0 2.5 1.119 2.5 2.5s-1.12 2.5-2.5 2.5zm-16.786 0h-160c-1.381 0-2.5-1.119-2.5-2.5s1.119-2.5 2.5-2.5h160c1.381 0 2.5 1.119 2.5 2.5s-1.119 2.5-2.5 2.5z" fill="#ffcbc2"/><path d="m45.7 27.12c0 4.93 4.01 8.95 8.95 8.95 4.93 0 8.94-4.02 8.94-8.95s-4.01-8.94-8.94-8.94c-4.94 0-8.95 4.01-8.95 8.94zm12.89 0c0 2.17-1.77 3.94-3.94 3.95-2.18-.01-3.95-1.78-3.95-3.95s1.77-3.94 3.95-3.94c2.17 0 3.94 1.77 3.94 3.94z"/><path d="m79.5 36.07c4.93 0 8.94-4.02 8.95-8.95-.01-4.93-4.02-8.94-8.95-8.94s-8.95 4.01-8.95 8.94 4.02 8.95 8.95 8.95zm0-12.89c2.17 0 3.94 1.77 3.94 3.94s-1.77 3.94-3.94 3.95c-2.17-.01-3.94-1.78-3.95-3.95.01-2.17 1.78-3.94 3.95-3.94z"/><path d="m113.3 27.12c0-4.93-4.01-8.94-8.95-8.94-4.93 0-8.94 4.01-8.94 8.94s4.01 8.95 8.94 8.95c4.94 0 8.95-4.02 8.95-8.95zm-12.89 0c0-2.17 1.77-3.94 3.94-3.94 2.18 0 3.95 1.77 3.95 3.94 0 2.18-1.77 3.94-3.95 3.95-2.17-.01-3.94-1.77-3.94-3.95z"/><path d="m211.69 27.122c0-1.381-1.119-2.5-2.5-2.5h-79.69c-1.381 0-2.5 1.119-2.5 2.5s1.119 2.5 2.5 2.5h79.69c1.381 0 2.5-1.12 2.5-2.5z"/><circle cx="68.05" cy="8.51" r="2.5"/><circle cx="182.87" cy="45.73" r="2.5"/><circle cx="27.52" cy="227.49" r="2.5"/><path d="m25.02 247.49c0 1.38 1.12 2.5 2.5 2.5s2.5-1.12 2.5-2.5v-10c0-1.38-1.12-2.5-2.5-2.5s-2.5 1.12-2.5 2.5z"/><path d="m25.02 216.19v1.3c0 1.38 1.12 2.5 2.5 2.5s2.5-1.12 2.5-2.5v-1.3c.02-13.58 11.09-24.64 24.66-24.67h12.66c13.58.03 24.64 11.09 24.67 24.67v31.3c0 1.38 1.12 2.5 2.49 2.5 1.38 0 2.51-1.12 2.51-2.5v-31.3c0-.063-.004-.125-.005-.188.132-13.493 11.157-24.452 24.665-24.482h12.66c13.504.03 24.528 10.983 24.665 24.473 0 .066-.005.131-.005.197v31.3c0 .899.484 1.681 1.199 2.121.38.236.823.379 1.301.379h.005s.003 0 .005 0c1.37 0 2.5-1.12 2.5-2.5v-31.3c.02-13.58 11.08-24.64 24.66-24.67h12.66c13.57.03 24.64 11.09 24.66 24.67v31.3c0 1.38 1.13 2.5 2.5 2.5 1.38 0 2.5-1.12 2.5-2.5v-31.3c0-14.562-10.359-26.327-23.624-29.055 3.96-3.204 6.659-7.903 7.222-13.234h3.293c4.136 0 7.5-3.364 7.5-7.5 0-14.636 0-138.242 0-152.891 0-4.13-3.36-7.5-7.5-7.5h-139.821c-1.38 0-2.5 1.12-2.5 2.5s1.12 2.5 2.5 2.5h139.82c1.38 0 2.5 1.12 2.5 2.5v29.72h-27.5c-1.38 0-2.5 1.12-2.5 2.5s1.12 2.5 2.5 2.5h27.5v118.171c0 1.378-1.122 2.5-2.5 2.5h-3.42c-1.429-9.453-9.683-16.79-19.46-16.79-9.783 0-18.041 7.337-19.471 16.79h-28.06c-1.43-9.453-9.683-16.79-19.46-16.79s-18.031 7.337-19.46 16.79h-28.059c-1.429-9.453-9.688-16.79-19.471-16.79-9.777 0-18.031 7.337-19.46 16.79h-3.42c-1.378 0-2.5-1.122-2.5-2.5v-118.171h137.24c1.38 0 2.5-1.12 2.5-2.5s-1.12-2.5-2.5-2.5h-137.239v-29.72c0-1.38 1.12-2.5 2.5-2.5h19.92c1.38 0 2.5-1.12 2.5-2.5s-1.12-2.5-2.5-2.5h-19.92c-4.13 0-7.5 3.37-7.5 7.5v152.891c0 4.136 3.364 7.5 7.5 7.5h3.293c.562 5.332 3.262 10.031 7.222 13.234-13.216 2.717-23.625 14.439-23.625 29.055zm155.27-44.73c.187-7.912 6.781-14.349 14.701-14.349 7.913 0 14.503 6.437 14.69 14.349.212 8.263-6.46 15.049-14.671 15.06h-.039c-8.217-.011-14.893-6.797-14.681-15.06zm-32.702 2.441h27.805c.563 5.332 3.265 10.032 7.227 13.235-9.655 1.987-17.384 8.608-21.127 17.113-3.754-8.542-11.505-15.135-21.127-17.114 3.96-3.203 6.659-7.902 7.222-13.234zm-34.278-2.441c.187-7.912 6.777-14.349 14.69-14.349s14.503 6.437 14.69 14.349c.199 8.346-6.526 15.049-14.671 15.06h-.039c-7.765-.01-14.878-6.329-14.67-15.06zm-32.703 2.441h27.805c.562 5.332 3.262 10.031 7.222 13.234-9.618 1.978-17.372 8.57-21.127 17.114-3.742-8.502-11.469-15.125-21.127-17.113 3.963-3.204 6.665-7.903 7.227-13.235zm-34.288-2.441c.187-7.912 6.777-14.349 14.69-14.349s14.478 6.417 14.704 14.29c.237 8.259-6.418 15.108-14.685 15.119h-.038c-8.211-.011-14.883-6.798-14.671-15.06z"/><path d="m104.871 119.55c1.381 0 2.5-1.119 2.5-2.5v-21.279c0-7.627-6.205-13.832-13.832-13.832s-13.832 6.205-13.832 13.832v21.279c0 1.381 1.119 2.5 2.5 2.5s2.5-1.119 2.5-2.5v-9.944h17.664v9.944c0 1.381 1.119 2.5 2.5 2.5zm-20.164-17.444v-6.335c0-4.87 3.962-8.832 8.832-8.832s8.832 3.962 8.832 8.832v6.335z"/><path d="m159.283 86.938h14.512c1.381 0 2.5-1.119 2.5-2.5s-1.119-2.5-2.5-2.5h-14.512c-5.874 0-10.653 4.779-10.653 10.653s4.779 10.653 10.653 10.653h6.359c3.117 0 5.653 2.536 5.653 5.653s-2.536 5.653-5.653 5.653h-14.512c-1.381 0-2.5 1.119-2.5 2.5s1.119 2.5 2.5 2.5h14.512c5.874 0 10.653-4.779 10.653-10.653s-4.779-10.653-10.653-10.653h-6.359c-3.117 0-5.653-2.536-5.653-5.653s2.536-5.653 5.653-5.653z"/><path d="m116.669 81.938c-1.381 0-2.5 1.119-2.5 2.5v32.611c0 1.381 1.119 2.5 2.5 2.5h11.333c7.626 0 13.831-6.205 13.831-13.831v-9.95c0-7.626-6.205-13.831-13.831-13.831h-11.333zm20.164 13.831v9.95c0 4.869-3.961 8.831-8.831 8.831h-8.833v-27.612h8.833c4.87 0 8.831 3.962 8.831 8.831z"/><circle cx="196.02" cy="91.52" r="2.5"/><path d="m198.52 61.69c0-1.358-1.117-2.5-2.5-2.5h-136.03c-1.355 0-2.5 1.087-2.5 2.5v78.11c0 1.413 1.145 2.5 2.5 2.5h136.03c1.412 0 2.5-1.163 2.5-2.5v-38.28c0-1.38-1.13-2.5-2.5-2.5-1.38 0-2.5 1.12-2.5 2.5v35.78h-131.03v-73.11h131.03v17.33c0 1.38 1.12 2.5 2.5 2.5 1.37 0 2.5-1.12 2.5-2.5z"/></g></svg>