<svg version="1.1" id="svg4380" xml:space="preserve" width="300" height="300" viewBox="0 0 682.66669 682.66669" xmlns="http://www.w3.org/2000/svg" xmlns:svg="http://www.w3.org/2000/svg" xmlns:xlink="http://www.w3.org/1999/xlink" xmlns:svgjs="http://svgjs.dev/svgjs"><g transform="matrix(1,0,0,1,0,0)"><defs id="defs4384"><clipPath clipPathUnits="userSpaceOnUse" id="clipPath4394"><path d="M 0,512 H 512 V 0 H 0 Z" id="path4392" fill="#ffffff" fill-opacity="1" data-original-color="#000000ff" stroke="none" stroke-opacity="1"/></clipPath></defs><g id="g4386" transform="matrix(1.3333333,0,0,-1.3333333,0,682.66667)"><g id="g4388"><g id="g4390" clip-path="url(#clipPath4394)"><g id="g4396" transform="translate(7.5,281.458)"><path d="m 0,0 v -76.653 c 0,-24.998 20.266,-45.264 45.264,-45.264 h 27.804 c 9.327,0 16.887,-7.561 16.887,-16.887 v -54.515 l 66.457,66.456 c 3.167,3.167 7.462,4.946 11.941,4.946 h 209.04 c 24.998,0 45.263,20.266 45.263,45.264 v 230.116 c 0,24.999 -20.265,45.264 -45.263,45.264 H 45.264 C 20.266,198.727 0,178.462 0,153.463 V 35" style="stroke-linecap: round; stroke-linejoin: round; stroke-miterlimit: 10; stroke-dasharray: none;" id="path4398" fill="none" fill-opacity="1" stroke="#ffffff" stroke-opacity="1" data-original-stroke-color="#000000ff" stroke-width="15" data-original-stroke-width="15"/></g><g id="g4400" transform="translate(273.7695,271.4297)"><path d="m 0,0 c 1.533,4.803 2.361,9.917 2.361,15.221 0,27.647 -22.492,50.139 -50.138,50.139 h -14.327 c -8.981,0 -16.287,7.305 -16.287,16.286 0,8.979 7.306,16.285 16.287,16.285 h 14.327 c 6.562,0 12.455,-3.907 15.011,-9.952 3.642,-8.61 13.579,-12.636 22.184,-8.996 8.61,3.642 12.638,13.574 8.996,22.184 -6.572,15.539 -20.31,26.484 -36.429,29.666 v 12.826 c 0,9.349 -7.578,16.927 -16.926,16.927 -9.349,0 -16.927,-7.578 -16.927,-16.927 v -12.83 c -22.989,-4.556 -40.376,-24.877 -40.376,-49.183 0,-27.647 22.492,-50.139 50.14,-50.139 h 14.327 c 8.979,0 16.284,-7.306 16.284,-16.286 0,-8.979 -7.305,-16.284 -16.284,-16.284 h -14.327 c -6.767,0 -12.727,4.071 -15.184,10.372 -3.398,8.709 -13.211,13.016 -21.92,9.62 -8.71,-3.397 -13.017,-13.211 -9.621,-21.92 6.354,-16.293 20.314,-27.742 36.961,-30.988 v -12.813 c 0,-9.349 7.578,-16.927 16.927,-16.927 9.348,0 16.926,7.578 16.926,16.927 v 12.829 c 5.845,1.158 11.327,3.335 16.253,6.338" style="stroke-linecap: round; stroke-linejoin: round; stroke-miterlimit: 10; stroke-dasharray: none;" id="path4402" fill="none" fill-opacity="1" stroke="#ffffff" stroke-opacity="1" data-original-stroke-color="#000000ff" stroke-width="15" data-original-stroke-width="15"/></g><g id="g4404" transform="translate(136.3633,127.0469)"><path d="M 0,0 C 7.687,-14.191 22.708,-23.829 39.98,-23.829 H 147.936" style="stroke-linecap: round; stroke-linejoin: round; stroke-miterlimit: 10; stroke-dasharray: none;" id="path4406" fill="none" fill-opacity="1" stroke="#ffffff" stroke-opacity="1" data-original-stroke-color="#000000ff" stroke-width="15" data-original-stroke-width="15"/></g><g id="g4408" transform="translate(319.2988,103.2178)"><path d="m 0,0 h 16.848 c 4.479,0 8.774,-1.779 11.941,-4.946 l 66.456,-66.456 v 61.913 c 0,5.241 4.249,9.489 9.489,9.489 h 35.029 c 25.094,0 45.438,20.344 45.438,45.438 v 192.287 c 0,25.094 -20.344,45.438 -45.438,45.438 h -28.906" style="stroke-linecap: round; stroke-linejoin: round; stroke-miterlimit: 10; stroke-dasharray: none;" id="path4410" fill="none" fill-opacity="1" stroke="#ffffff" stroke-opacity="1" data-original-stroke-color="#000000ff" stroke-width="15" data-original-stroke-width="15"/></g></g></g></g></g></svg>