<svg xmlns="http://www.w3.org/2000/svg" xmlns:xlink="http://www.w3.org/1999/xlink" width="500" zoomAndPan="magnify" viewBox="0 0 375 374.999991" height="500" preserveAspectRatio="xMidYMid meet" version="1.0"><defs><filter x="0%" y="0%" width="100%" height="100%" id="6a9fe0e645"><feColorMatrix values="0 0 0 0 1 0 0 0 0 1 0 0 0 0 1 0 0 0 1 0" color-interpolation-filters="sRGB"/></filter><mask id="53078f4035"><g filter="url(#6a9fe0e645)"><rect x="-37.5" width="450" fill="#000000" y="-37.499999" height="449.999989" fill-opacity="0.7"/></g></mask><clipPath id="265546c37a"><path d="M 0.53125 0.53125 L 140 0.53125 L 140 140 L 0.53125 140 Z M 0.53125 0.53125 " clip-rule="nonzero"/></clipPath><clipPath id="083e664fbf"><rect x="0" width="140" y="0" height="140"/></clipPath></defs><g mask="url(#53078f4035)"><g transform="matrix(1, 0, 0, 1, 235, 235)"><g clip-path="url(#083e664fbf)"><g clip-path="url(#265546c37a)"><path fill="#004aad" d="M 139.488281 1.824219 C 139.511719 1.820312 139.535156 1.816406 139.554688 1.804688 C 139.574219 1.800781 139.59375 1.789062 139.613281 1.78125 C 139.628906 1.773438 139.644531 1.765625 139.65625 1.761719 C 139.679688 1.746094 139.699219 1.730469 139.722656 1.71875 C 139.734375 1.710938 139.742188 1.703125 139.75 1.695312 C 139.773438 1.675781 139.796875 1.65625 139.816406 1.632812 C 139.820312 1.628906 139.824219 1.625 139.832031 1.617188 C 139.855469 1.589844 139.875 1.566406 139.890625 1.539062 C 139.894531 1.535156 139.898438 1.53125 139.902344 1.527344 C 139.914062 1.503906 139.929688 1.476562 139.9375 1.449219 C 139.941406 1.441406 139.949219 1.429688 139.953125 1.421875 C 139.953125 1.421875 139.953125 1.417969 139.953125 1.417969 C 139.964844 1.378906 139.976562 1.335938 139.984375 1.296875 C 139.988281 1.277344 139.988281 1.257812 139.992188 1.238281 C 139.992188 1.21875 139.996094 1.203125 139.996094 1.183594 C 139.996094 1.179688 139.996094 1.175781 139.996094 1.171875 C 139.996094 1.144531 139.992188 1.113281 139.984375 1.085938 C 139.980469 1.070312 139.980469 1.058594 139.976562 1.039062 C 139.972656 1.019531 139.964844 0.996094 139.957031 0.972656 C 139.953125 0.953125 139.949219 0.933594 139.9375 0.914062 C 139.933594 0.898438 139.921875 0.886719 139.914062 0.871094 C 139.902344 0.847656 139.890625 0.828125 139.875 0.804688 C 139.867188 0.792969 139.863281 0.785156 139.855469 0.78125 C 139.835938 0.753906 139.816406 0.726562 139.792969 0.707031 C 139.785156 0.699219 139.78125 0.699219 139.777344 0.695312 C 139.75 0.671875 139.722656 0.648438 139.695312 0.628906 C 139.683594 0.621094 139.675781 0.617188 139.664062 0.613281 C 139.636719 0.59375 139.613281 0.582031 139.582031 0.570312 C 139.578125 0.570312 139.574219 0.566406 139.570312 0.5625 C 139.554688 0.554688 139.539062 0.550781 139.519531 0.550781 C 139.5 0.542969 139.476562 0.535156 139.457031 0.53125 C 139.429688 0.527344 139.402344 0.527344 139.375 0.523438 C 139.359375 0.523438 139.347656 0.519531 139.335938 0.519531 C 139.332031 0.519531 139.328125 0.519531 139.324219 0.519531 C 139.296875 0.519531 139.265625 0.523438 139.234375 0.53125 C 139.222656 0.53125 139.207031 0.53125 139.191406 0.535156 C 139.167969 0.542969 139.148438 0.550781 139.125 0.558594 C 139.105469 0.566406 139.085938 0.570312 139.066406 0.578125 C 139.050781 0.585938 139.039062 0.59375 139.019531 0.605469 C 139 0.617188 138.976562 0.628906 138.957031 0.644531 C 138.945312 0.652344 138.9375 0.660156 138.929688 0.667969 C 138.90625 0.6875 138.878906 0.707031 138.859375 0.730469 C 138.851562 0.738281 138.851562 0.742188 138.84375 0.75 C 138.820312 0.777344 138.796875 0.804688 138.78125 0.828125 C 138.773438 0.839844 138.769531 0.847656 138.765625 0.863281 C 138.746094 0.890625 138.734375 0.914062 138.722656 0.945312 C 138.722656 0.949219 138.71875 0.953125 138.714844 0.953125 C 138.703125 0.976562 138.703125 1.003906 138.695312 1.027344 C 138.691406 1.039062 138.6875 1.050781 138.683594 1.0625 C 138.667969 1.144531 138.667969 1.226562 138.679688 1.304688 C 138.683594 1.316406 138.6875 1.332031 138.691406 1.347656 C 138.699219 1.371094 138.703125 1.394531 138.710938 1.414062 C 138.71875 1.433594 138.726562 1.457031 138.738281 1.476562 C 138.746094 1.488281 138.746094 1.503906 138.757812 1.515625 C 138.769531 1.539062 138.785156 1.5625 138.804688 1.585938 C 138.808594 1.589844 138.8125 1.601562 138.820312 1.609375 C 138.832031 1.625 138.851562 1.640625 138.867188 1.65625 L 105.460938 50.257812 C 105.398438 50.230469 105.335938 50.210938 105.265625 50.199219 C 104.902344 50.160156 104.574219 50.425781 104.535156 50.789062 C 104.496094 51.152344 104.761719 51.484375 105.125 51.523438 C 105.210938 51.53125 105.292969 51.523438 105.371094 51.503906 L 124.589844 90.707031 C 124.585938 90.707031 124.585938 90.710938 124.585938 90.710938 C 124.582031 90.714844 124.578125 90.714844 124.574219 90.71875 C 124.566406 90.722656 124.5625 90.726562 124.558594 90.734375 C 124.542969 90.746094 124.527344 90.761719 124.511719 90.777344 C 124.507812 90.78125 124.503906 90.785156 124.5 90.789062 C 124.496094 90.792969 124.496094 90.800781 124.488281 90.804688 C 124.484375 90.808594 124.480469 90.816406 124.472656 90.820312 C 124.472656 90.824219 124.464844 90.828125 124.460938 90.835938 C 124.460938 90.835938 124.457031 90.839844 124.457031 90.839844 C 124.453125 90.84375 124.453125 90.851562 124.445312 90.859375 C 124.445312 90.863281 124.441406 90.863281 124.441406 90.863281 C 124.4375 90.871094 124.429688 90.878906 124.425781 90.886719 C 124.421875 90.886719 124.417969 90.894531 124.414062 90.898438 C 124.414062 90.902344 124.410156 90.902344 124.410156 90.90625 C 124.410156 90.910156 124.40625 90.914062 124.402344 90.921875 C 124.402344 90.921875 124.398438 90.925781 124.398438 90.925781 L 83.488281 78.445312 C 83.496094 78.398438 83.496094 78.351562 83.488281 78.304688 C 83.453125 77.984375 83.195312 77.738281 82.882812 77.710938 L 79.457031 45.167969 C 79.753906 45.074219 79.960938 44.785156 79.921875 44.460938 C 79.882812 44.097656 79.558594 43.832031 79.191406 43.871094 C 78.828125 43.910156 78.5625 44.234375 78.601562 44.601562 C 78.636719 44.921875 78.894531 45.167969 79.207031 45.195312 L 82.636719 77.738281 C 82.335938 77.832031 82.128906 78.121094 82.167969 78.445312 C 82.167969 78.449219 82.167969 78.453125 82.167969 78.453125 L 60.054688 85.386719 C 59.941406 85.171875 59.714844 85.03125 59.453125 85.03125 C 59.085938 85.039062 58.800781 85.351562 58.804688 85.714844 C 58.8125 86.039062 59.054688 86.304688 59.367188 86.351562 L 60.121094 113.15625 C 59.839844 113.21875 59.628906 113.445312 59.601562 113.757812 C 59.597656 113.824219 59.609375 113.886719 59.621094 113.945312 L 1.734375 138.957031 C 1.714844 138.921875 1.6875 138.894531 1.660156 138.867188 C 1.636719 138.84375 1.613281 138.824219 1.589844 138.804688 C 1.582031 138.800781 1.578125 138.792969 1.570312 138.789062 C 1.554688 138.777344 1.535156 138.765625 1.515625 138.757812 C 1.5 138.746094 1.484375 138.738281 1.464844 138.730469 C 1.457031 138.726562 1.449219 138.722656 1.441406 138.722656 C 1.410156 138.707031 1.382812 138.699219 1.355469 138.691406 C 1.355469 138.691406 1.351562 138.691406 1.351562 138.691406 C 1.316406 138.679688 1.277344 138.675781 1.238281 138.671875 C 1.234375 138.671875 1.234375 138.671875 1.230469 138.671875 C 1.199219 138.667969 1.164062 138.667969 1.128906 138.671875 C 1.125 138.671875 1.121094 138.671875 1.117188 138.671875 C 1.105469 138.671875 1.097656 138.675781 1.089844 138.679688 C 1.0625 138.679688 1.035156 138.6875 1.007812 138.695312 C 0.992188 138.699219 0.976562 138.703125 0.957031 138.710938 C 0.949219 138.714844 0.933594 138.71875 0.925781 138.722656 C 0.914062 138.722656 0.910156 138.730469 0.902344 138.734375 C 0.875 138.746094 0.847656 138.765625 0.824219 138.78125 C 0.8125 138.785156 0.804688 138.792969 0.796875 138.796875 C 0.769531 138.816406 0.742188 138.839844 0.722656 138.863281 C 0.714844 138.871094 0.703125 138.878906 0.699219 138.886719 C 0.679688 138.90625 0.660156 138.929688 0.644531 138.953125 C 0.636719 138.964844 0.625 138.980469 0.617188 139 C 0.605469 139.015625 0.59375 139.03125 0.589844 139.046875 C 0.574219 139.070312 0.566406 139.097656 0.558594 139.125 C 0.554688 139.132812 0.550781 139.144531 0.550781 139.15625 C 0.539062 139.191406 0.53125 139.222656 0.53125 139.253906 C 0.53125 139.265625 0.527344 139.273438 0.527344 139.285156 C 0.523438 139.316406 0.523438 139.347656 0.527344 139.378906 C 0.527344 139.386719 0.527344 139.394531 0.527344 139.402344 C 0.527344 139.414062 0.53125 139.421875 0.53125 139.433594 C 0.535156 139.457031 0.542969 139.480469 0.550781 139.507812 C 0.554688 139.527344 0.5625 139.550781 0.570312 139.570312 C 0.574219 139.578125 0.574219 139.589844 0.578125 139.597656 C 0.582031 139.609375 0.589844 139.613281 0.59375 139.621094 C 0.605469 139.648438 0.617188 139.675781 0.636719 139.699219 C 0.640625 139.710938 0.648438 139.71875 0.652344 139.726562 C 0.671875 139.753906 0.695312 139.78125 0.71875 139.804688 C 0.722656 139.808594 0.734375 139.820312 0.742188 139.824219 C 0.761719 139.847656 0.785156 139.863281 0.804688 139.878906 C 0.820312 139.890625 0.835938 139.898438 0.851562 139.910156 C 0.871094 139.917969 0.886719 139.929688 0.90625 139.933594 C 0.929688 139.949219 0.953125 139.957031 0.980469 139.964844 C 0.992188 139.96875 1 139.972656 1.015625 139.972656 C 1.046875 139.984375 1.082031 139.992188 1.113281 139.996094 C 1.125 139.996094 1.132812 139.996094 1.144531 139.996094 C 1.171875 140 1.207031 140 1.234375 139.996094 C 1.246094 139.996094 1.25 139.996094 1.261719 139.996094 C 1.273438 139.996094 1.285156 139.996094 1.292969 139.992188 C 1.316406 139.988281 1.335938 139.984375 1.351562 139.980469 C 1.378906 139.972656 1.398438 139.96875 1.421875 139.957031 C 1.433594 139.953125 1.441406 139.953125 1.453125 139.949219 C 1.457031 139.945312 1.464844 139.941406 1.464844 139.941406 C 1.496094 139.929688 1.523438 139.910156 1.546875 139.894531 C 1.550781 139.890625 1.554688 139.890625 1.5625 139.890625 C 1.589844 139.867188 1.621094 139.847656 1.648438 139.820312 C 1.648438 139.820312 1.648438 139.820312 1.652344 139.816406 C 1.675781 139.792969 1.695312 139.769531 1.714844 139.742188 C 1.71875 139.738281 1.722656 139.730469 1.726562 139.726562 C 1.738281 139.710938 1.75 139.691406 1.761719 139.671875 C 1.769531 139.65625 1.78125 139.636719 1.785156 139.621094 C 1.789062 139.613281 1.792969 139.605469 1.796875 139.59375 C 1.808594 139.566406 1.820312 139.539062 1.824219 139.507812 C 1.835938 139.46875 1.84375 139.433594 1.84375 139.394531 L 105.644531 128.449219 C 105.707031 128.648438 105.855469 128.816406 106.066406 128.886719 C 106.378906 128.992188 106.703125 128.859375 106.859375 128.582031 L 138.667969 139.25 C 138.667969 139.253906 138.667969 139.261719 138.667969 139.269531 C 138.667969 139.269531 138.667969 139.273438 138.667969 139.273438 C 138.667969 139.285156 138.664062 139.296875 138.664062 139.316406 C 138.664062 139.324219 138.660156 139.332031 138.660156 139.339844 C 138.660156 139.339844 138.660156 139.339844 138.660156 139.34375 C 138.660156 139.351562 138.660156 139.359375 138.660156 139.359375 C 138.660156 139.359375 138.660156 139.363281 138.660156 139.363281 C 138.660156 139.371094 138.664062 139.378906 138.664062 139.386719 C 138.664062 139.398438 138.664062 139.40625 138.664062 139.414062 C 138.664062 139.421875 138.667969 139.425781 138.667969 139.429688 C 138.671875 139.445312 138.671875 139.453125 138.671875 139.464844 C 138.671875 139.46875 138.671875 139.46875 138.675781 139.472656 C 138.679688 139.492188 138.683594 139.507812 138.691406 139.527344 C 138.695312 139.53125 138.695312 139.542969 138.699219 139.550781 C 138.703125 139.558594 138.703125 139.570312 138.710938 139.582031 C 138.714844 139.59375 138.722656 139.601562 138.726562 139.613281 C 138.730469 139.625 138.738281 139.636719 138.742188 139.644531 C 138.746094 139.652344 138.746094 139.65625 138.75 139.667969 C 138.753906 139.671875 138.753906 139.675781 138.757812 139.679688 C 138.761719 139.683594 138.761719 139.6875 138.765625 139.691406 C 138.765625 139.695312 138.765625 139.695312 138.765625 139.699219 C 138.773438 139.707031 138.785156 139.71875 138.789062 139.730469 C 138.800781 139.742188 138.808594 139.757812 138.816406 139.765625 C 138.816406 139.765625 138.820312 139.769531 138.820312 139.769531 C 138.824219 139.773438 138.828125 139.777344 138.828125 139.78125 C 138.832031 139.785156 138.839844 139.789062 138.84375 139.796875 C 138.851562 139.804688 138.859375 139.8125 138.871094 139.820312 C 138.882812 139.828125 138.894531 139.84375 138.90625 139.851562 C 138.914062 139.855469 138.914062 139.859375 138.921875 139.863281 C 138.929688 139.867188 138.933594 139.871094 138.9375 139.875 C 138.949219 139.882812 138.957031 139.890625 138.96875 139.894531 C 138.980469 139.902344 138.996094 139.910156 139.007812 139.917969 C 139.015625 139.921875 139.023438 139.925781 139.03125 139.929688 C 139.039062 139.933594 139.042969 139.933594 139.046875 139.933594 C 139.058594 139.941406 139.070312 139.945312 139.082031 139.949219 C 139.089844 139.953125 139.097656 139.953125 139.105469 139.957031 C 139.113281 139.960938 139.117188 139.960938 139.125 139.960938 C 139.132812 139.964844 139.140625 139.964844 139.148438 139.96875 C 139.15625 139.972656 139.164062 139.972656 139.167969 139.972656 C 139.1875 139.976562 139.199219 139.980469 139.214844 139.980469 C 139.226562 139.984375 139.238281 139.984375 139.25 139.988281 C 139.253906 139.988281 139.265625 139.988281 139.273438 139.992188 C 139.28125 139.992188 139.292969 139.992188 139.300781 139.992188 C 139.308594 139.992188 139.3125 139.992188 139.316406 139.992188 C 139.328125 139.992188 139.339844 139.988281 139.347656 139.988281 C 139.359375 139.988281 139.367188 139.988281 139.378906 139.988281 C 139.386719 139.988281 139.390625 139.988281 139.398438 139.988281 C 139.402344 139.988281 139.402344 139.988281 139.402344 139.984375 C 139.414062 139.984375 139.421875 139.980469 139.433594 139.976562 C 139.445312 139.972656 139.460938 139.972656 139.476562 139.96875 C 139.488281 139.964844 139.5 139.960938 139.511719 139.957031 C 139.519531 139.953125 139.523438 139.953125 139.527344 139.953125 C 139.539062 139.953125 139.550781 139.949219 139.558594 139.941406 C 139.570312 139.9375 139.582031 139.933594 139.59375 139.925781 C 139.605469 139.917969 139.613281 139.910156 139.628906 139.90625 C 139.636719 139.902344 139.640625 139.898438 139.648438 139.894531 C 139.652344 139.890625 139.65625 139.890625 139.65625 139.890625 C 139.660156 139.886719 139.667969 139.882812 139.671875 139.878906 C 139.679688 139.871094 139.6875 139.867188 139.699219 139.863281 C 139.710938 139.851562 139.71875 139.847656 139.730469 139.835938 C 139.738281 139.828125 139.746094 139.824219 139.753906 139.816406 C 139.761719 139.808594 139.765625 139.804688 139.773438 139.800781 C 139.78125 139.792969 139.785156 139.785156 139.792969 139.78125 C 139.804688 139.769531 139.8125 139.761719 139.824219 139.746094 C 139.828125 139.738281 139.839844 139.730469 139.847656 139.71875 C 139.847656 139.714844 139.855469 139.710938 139.859375 139.703125 C 139.867188 139.695312 139.867188 139.6875 139.875 139.675781 C 139.882812 139.667969 139.890625 139.65625 139.894531 139.644531 C 139.902344 139.636719 139.90625 139.625 139.910156 139.613281 C 139.914062 139.605469 139.917969 139.601562 139.921875 139.59375 C 139.929688 139.582031 139.933594 139.570312 139.933594 139.558594 C 139.9375 139.550781 139.941406 139.546875 139.945312 139.535156 C 139.949219 139.527344 139.949219 139.527344 139.949219 139.519531 C 139.953125 139.507812 139.953125 139.5 139.953125 139.492188 C 139.957031 139.488281 139.957031 139.480469 139.960938 139.472656 C 139.964844 139.457031 139.96875 139.445312 139.96875 139.425781 C 139.972656 139.417969 139.972656 139.402344 139.972656 139.394531 C 139.972656 139.386719 139.972656 139.378906 139.976562 139.371094 C 139.976562 139.359375 139.976562 139.351562 139.976562 139.339844 C 139.976562 139.335938 139.976562 139.332031 139.976562 139.324219 C 139.976562 139.316406 139.972656 139.300781 139.972656 139.292969 C 139.972656 139.28125 139.972656 139.273438 139.972656 139.261719 C 139.972656 139.253906 139.972656 139.253906 139.972656 139.246094 C 139.972656 139.242188 139.972656 139.238281 139.972656 139.234375 C 139.972656 139.230469 139.96875 139.222656 139.96875 139.210938 C 139.964844 139.195312 139.960938 139.183594 139.957031 139.167969 C 139.953125 139.15625 139.953125 139.148438 139.953125 139.136719 C 139.949219 139.128906 139.949219 139.125 139.945312 139.117188 C 139.941406 139.105469 139.941406 139.101562 139.9375 139.089844 C 139.933594 139.078125 139.925781 139.0625 139.917969 139.050781 C 139.914062 139.042969 139.910156 139.027344 139.90625 139.019531 C 139.902344 139.011719 139.898438 139.007812 139.894531 139 C 139.890625 138.996094 139.890625 138.988281 139.886719 138.980469 C 139.882812 138.976562 139.882812 138.976562 139.882812 138.972656 C 139.875 138.960938 139.867188 138.953125 139.859375 138.941406 C 139.851562 138.9375 139.847656 138.925781 139.84375 138.914062 C 139.839844 138.910156 139.832031 138.90625 139.828125 138.902344 C 139.824219 138.894531 139.820312 138.894531 139.816406 138.886719 C 139.804688 138.875 139.796875 138.867188 139.785156 138.855469 C 139.777344 138.847656 139.765625 138.835938 139.757812 138.828125 C 139.753906 138.824219 139.746094 138.820312 139.742188 138.8125 C 139.742188 138.808594 139.734375 138.808594 139.730469 138.804688 C 139.71875 138.796875 139.710938 138.789062 139.699219 138.785156 C 139.6875 138.773438 139.675781 138.765625 139.660156 138.753906 C 139.65625 138.75 139.652344 138.746094 139.648438 138.746094 C 139.644531 138.742188 139.636719 138.742188 139.632812 138.738281 C 139.625 138.734375 139.617188 138.726562 139.609375 138.722656 C 139.59375 138.71875 139.578125 138.710938 139.566406 138.703125 C 139.554688 138.703125 139.546875 138.695312 139.535156 138.691406 C 139.53125 138.691406 139.527344 138.6875 139.527344 138.683594 C 139.515625 138.679688 139.507812 138.679688 139.496094 138.679688 C 139.484375 138.675781 139.46875 138.671875 139.460938 138.667969 C 139.453125 138.664062 139.445312 138.664062 139.4375 138.660156 L 139.4375 72.691406 C 139.445312 72.691406 139.449219 72.691406 139.457031 72.6875 C 139.46875 72.683594 139.484375 72.679688 139.496094 72.675781 C 139.519531 72.671875 139.542969 72.664062 139.5625 72.652344 C 139.578125 72.648438 139.59375 72.636719 139.613281 72.628906 C 139.628906 72.621094 139.644531 72.613281 139.660156 72.605469 C 139.679688 72.589844 139.699219 72.578125 139.71875 72.5625 C 139.726562 72.554688 139.742188 72.546875 139.75 72.539062 C 139.765625 72.523438 139.78125 72.503906 139.800781 72.488281 C 139.808594 72.480469 139.820312 72.46875 139.828125 72.457031 C 139.84375 72.4375 139.851562 72.421875 139.867188 72.40625 C 139.875 72.390625 139.886719 72.375 139.894531 72.359375 C 139.90625 72.34375 139.910156 72.328125 139.917969 72.308594 C 139.929688 72.289062 139.933594 72.269531 139.941406 72.25 C 139.945312 72.246094 139.949219 72.242188 139.949219 72.234375 C 139.953125 72.226562 139.953125 72.214844 139.953125 72.203125 C 139.960938 72.175781 139.96875 72.148438 139.972656 72.117188 C 139.972656 72.105469 139.972656 72.097656 139.972656 72.082031 C 139.972656 72.066406 139.976562 72.054688 139.976562 72.035156 C 139.976562 72.023438 139.972656 72.011719 139.972656 71.992188 C 139.972656 71.976562 139.972656 71.960938 139.96875 71.941406 C 139.964844 71.914062 139.957031 71.890625 139.953125 71.863281 C 139.953125 71.84375 139.945312 71.828125 139.9375 71.808594 C 139.929688 71.789062 139.921875 71.765625 139.910156 71.746094 C 139.902344 71.726562 139.890625 71.707031 139.878906 71.6875 C 139.867188 71.671875 139.859375 71.652344 139.847656 71.640625 C 139.835938 71.621094 139.820312 71.601562 139.804688 71.585938 C 139.789062 71.570312 139.78125 71.558594 139.765625 71.546875 C 139.75 71.53125 139.730469 71.519531 139.710938 71.503906 C 139.695312 71.488281 139.675781 71.480469 139.660156 71.464844 C 139.644531 71.457031 139.625 71.445312 139.605469 71.4375 C 139.585938 71.425781 139.5625 71.417969 139.542969 71.410156 C 139.53125 71.40625 139.523438 71.398438 139.511719 71.398438 C 139.503906 71.394531 139.492188 71.394531 139.484375 71.390625 C 139.46875 71.386719 139.453125 71.378906 139.441406 71.375 L 139.441406 1.835938 C 139.464844 1.835938 139.476562 1.828125 139.488281 1.824219 Z M 104.246094 99.949219 C 104.28125 99.839844 104.28125 99.726562 104.261719 99.621094 L 124.425781 91.59375 C 124.425781 91.59375 124.425781 91.59375 124.425781 91.597656 C 124.425781 91.597656 124.429688 91.601562 124.429688 91.601562 C 124.433594 91.609375 124.4375 91.617188 124.445312 91.625 C 124.453125 91.628906 124.457031 91.640625 124.464844 91.648438 C 124.472656 91.660156 124.488281 91.675781 124.496094 91.691406 C 124.496094 91.691406 124.5 91.691406 124.503906 91.691406 C 124.511719 91.699219 124.515625 91.707031 124.523438 91.710938 L 108.414062 116.351562 C 108.398438 116.34375 108.378906 116.335938 108.359375 116.332031 C 108.355469 116.328125 108.347656 116.324219 108.339844 116.324219 C 108.339844 116.324219 108.335938 116.324219 108.335938 116.324219 C 108.324219 116.320312 108.308594 116.316406 108.292969 116.3125 C 108.289062 116.3125 108.277344 116.308594 108.273438 116.308594 C 108.261719 116.304688 108.25 116.308594 108.246094 116.304688 C 108.242188 116.304688 108.238281 116.304688 108.234375 116.300781 C 108.226562 116.300781 108.21875 116.296875 108.210938 116.296875 C 108.210938 116.296875 108.207031 116.296875 108.207031 116.296875 C 108.195312 116.296875 108.1875 116.296875 108.171875 116.296875 C 108.152344 116.296875 108.136719 116.296875 108.117188 116.296875 L 103.898438 100.339844 C 104.054688 100.269531 104.183594 100.128906 104.246094 99.949219 Z M 120.1875 51.882812 L 139.019531 2.351562 L 124.996094 90.382812 L 120.046875 53.078125 C 120.285156 52.996094 120.472656 52.78125 120.5 52.519531 C 120.53125 52.253906 120.398438 52.011719 120.1875 51.882812 Z M 139.105469 71.417969 C 139.085938 71.421875 139.0625 71.433594 139.042969 71.441406 C 139.023438 71.453125 139.003906 71.460938 138.984375 71.476562 C 138.96875 71.484375 138.953125 71.496094 138.9375 71.503906 C 138.917969 71.519531 138.898438 71.535156 138.882812 71.550781 C 138.871094 71.566406 138.855469 71.574219 138.84375 71.589844 C 138.828125 71.605469 138.8125 71.625 138.796875 71.640625 C 138.785156 71.65625 138.773438 71.671875 138.761719 71.695312 C 138.75 71.710938 138.742188 71.730469 138.730469 71.75 C 138.722656 71.769531 138.710938 71.792969 138.703125 71.816406 C 138.703125 71.824219 138.695312 71.835938 138.691406 71.84375 C 138.6875 71.855469 138.6875 71.867188 138.683594 71.878906 C 138.679688 71.898438 138.675781 71.921875 138.671875 71.941406 C 138.667969 71.960938 138.667969 71.976562 138.664062 71.996094 C 138.664062 72.011719 138.660156 72.027344 138.660156 72.042969 C 138.660156 72.054688 138.664062 72.058594 138.664062 72.070312 C 138.664062 72.082031 138.667969 72.09375 138.667969 72.105469 C 138.671875 72.132812 138.675781 72.160156 138.679688 72.183594 C 138.679688 72.195312 138.683594 72.207031 138.6875 72.222656 C 138.695312 72.246094 138.703125 72.265625 138.707031 72.289062 C 138.714844 72.304688 138.722656 72.320312 138.730469 72.335938 C 138.738281 72.351562 138.746094 72.371094 138.757812 72.386719 C 138.769531 72.40625 138.785156 72.421875 138.796875 72.441406 C 138.808594 72.453125 138.8125 72.464844 138.824219 72.476562 C 138.828125 72.480469 138.832031 72.484375 138.835938 72.492188 L 125.273438 90.644531 C 125.265625 90.640625 125.261719 90.640625 125.257812 90.636719 C 125.238281 90.628906 125.222656 90.625 125.207031 90.617188 C 125.207031 90.617188 125.203125 90.617188 125.203125 90.617188 L 139.199219 2.75 L 139.199219 71.394531 C 139.183594 71.398438 139.167969 71.398438 139.15625 71.40625 C 139.144531 71.402344 139.125 71.410156 139.105469 71.417969 Z M 123.574219 112.265625 C 123.484375 112.117188 123.34375 112.023438 123.1875 111.976562 L 125.046875 91.902344 C 125.050781 91.902344 125.050781 91.902344 125.054688 91.902344 L 138.941406 138.453125 L 123.457031 113.105469 C 123.683594 112.894531 123.746094 112.539062 123.574219 112.265625 Z M 108.753906 116.664062 C 108.75 116.65625 108.746094 116.648438 108.742188 116.648438 C 108.738281 116.632812 108.730469 116.621094 108.71875 116.609375 C 108.714844 116.597656 108.703125 116.585938 108.695312 116.574219 C 108.691406 116.566406 108.683594 116.5625 108.679688 116.550781 C 108.671875 116.539062 108.660156 116.523438 108.652344 116.515625 C 108.644531 116.503906 108.632812 116.5 108.628906 116.488281 L 124.738281 91.851562 C 124.742188 91.851562 124.746094 91.855469 124.75 91.855469 C 124.753906 91.859375 124.761719 91.859375 124.769531 91.863281 C 124.773438 91.867188 124.785156 91.871094 124.792969 91.875 C 124.792969 91.875 124.792969 91.878906 124.796875 91.878906 C 124.800781 91.878906 124.804688 91.878906 124.808594 91.882812 L 122.949219 111.957031 C 122.851562 111.964844 122.757812 111.992188 122.667969 112.046875 C 122.441406 112.1875 122.332031 112.433594 122.351562 112.683594 Z M 125.289062 91.824219 C 125.289062 91.824219 125.292969 91.824219 125.289062 91.824219 C 125.296875 91.820312 125.300781 91.820312 125.300781 91.816406 C 125.3125 91.8125 125.324219 91.804688 125.335938 91.796875 C 125.34375 91.796875 125.347656 91.792969 125.355469 91.785156 C 125.367188 91.777344 125.382812 91.765625 125.390625 91.753906 C 125.398438 91.753906 125.402344 91.75 125.40625 91.742188 C 125.421875 91.734375 125.433594 91.722656 125.445312 91.710938 C 125.453125 91.699219 125.464844 91.691406 125.472656 91.679688 C 125.484375 91.667969 125.496094 91.65625 125.507812 91.644531 C 125.511719 91.640625 125.511719 91.640625 125.511719 91.636719 C 125.515625 91.632812 125.515625 91.632812 125.519531 91.628906 C 125.523438 91.625 125.527344 91.621094 125.53125 91.613281 C 125.535156 91.605469 125.542969 91.589844 125.554688 91.582031 C 125.5625 91.566406 125.570312 91.554688 125.578125 91.542969 C 125.578125 91.53125 125.585938 91.519531 125.589844 91.515625 C 125.597656 91.5 125.601562 91.480469 125.609375 91.464844 C 125.613281 91.457031 125.617188 91.449219 125.617188 91.4375 C 125.617188 91.4375 125.621094 91.433594 125.621094 91.433594 C 125.621094 91.433594 125.621094 91.429688 125.621094 91.429688 C 125.621094 91.425781 125.621094 91.421875 125.625 91.417969 C 125.628906 91.414062 125.628906 91.40625 125.628906 91.398438 C 125.632812 91.386719 125.636719 91.371094 125.640625 91.355469 C 125.640625 91.347656 125.640625 91.339844 125.644531 91.332031 L 132.855469 90.992188 C 132.925781 91.28125 133.167969 91.480469 133.457031 91.5 L 139.039062 137.902344 Z M 133.417969 90.183594 C 133.109375 90.222656 132.882812 90.457031 132.839844 90.75 L 125.628906 91.085938 C 125.625 91.074219 125.621094 91.070312 125.617188 91.058594 C 125.617188 91.042969 125.609375 91.027344 125.601562 91.011719 C 125.597656 91.003906 125.597656 90.996094 125.597656 90.992188 C 125.597656 90.992188 125.597656 90.992188 125.597656 90.988281 C 125.597656 90.988281 125.597656 90.984375 125.597656 90.984375 C 125.59375 90.972656 125.585938 90.964844 125.578125 90.949219 C 125.578125 90.945312 125.574219 90.933594 125.570312 90.925781 C 125.566406 90.921875 125.558594 90.910156 125.554688 90.90625 C 125.550781 90.894531 125.546875 90.886719 125.539062 90.875 C 125.535156 90.863281 125.527344 90.859375 125.519531 90.847656 C 125.511719 90.84375 125.511719 90.832031 125.503906 90.824219 C 125.5 90.820312 125.492188 90.816406 125.492188 90.808594 C 125.484375 90.800781 125.480469 90.796875 125.472656 90.789062 L 139 72.691406 L 133.570312 90.183594 C 133.523438 90.175781 133.46875 90.175781 133.417969 90.183594 Z M 108.773438 117.222656 C 108.78125 117.199219 108.789062 117.175781 108.796875 117.152344 C 108.796875 117.152344 108.796875 117.148438 108.796875 117.148438 C 108.796875 117.144531 108.796875 117.144531 108.800781 117.140625 C 108.804688 117.128906 108.804688 117.117188 108.808594 117.101562 C 108.8125 117.09375 108.816406 117.082031 108.816406 117.074219 C 108.816406 117.0625 108.816406 117.054688 108.820312 117.046875 C 108.820312 117.03125 108.824219 117.023438 108.824219 117.007812 C 108.824219 117.003906 108.824219 116.996094 108.824219 116.992188 C 108.824219 116.988281 108.824219 116.980469 108.824219 116.972656 C 108.824219 116.953125 108.824219 116.9375 108.824219 116.917969 C 108.824219 116.910156 108.824219 116.902344 108.824219 116.898438 L 122.417969 112.910156 C 122.425781 112.925781 122.433594 112.9375 122.441406 112.957031 C 122.609375 113.230469 122.953125 113.339844 123.242188 113.234375 L 138.886719 138.835938 C 138.882812 138.839844 138.878906 138.847656 138.871094 138.851562 L 108.765625 117.246094 C 108.765625 117.238281 108.769531 117.230469 108.773438 117.222656 Z M 133.699219 91.476562 C 133.996094 91.378906 134.191406 91.089844 134.15625 90.761719 C 134.125 90.535156 133.992188 90.355469 133.804688 90.253906 L 139.203125 72.855469 L 139.203125 137.261719 Z M 138.851562 2.101562 L 119.957031 51.792969 C 119.941406 51.789062 119.925781 51.785156 119.914062 51.78125 C 119.59375 51.746094 119.296875 51.953125 119.203125 52.25 L 105.855469 50.808594 C 105.84375 50.652344 105.773438 50.503906 105.664062 50.394531 Z M 105.832031 51.054688 L 119.175781 52.496094 C 119.199219 52.804688 119.449219 53.070312 119.765625 53.101562 C 119.78125 53.101562 119.789062 53.101562 119.800781 53.101562 L 124.761719 90.5 L 105.589844 51.390625 C 105.703125 51.308594 105.789062 51.191406 105.832031 51.054688 Z M 82.246094 78.6875 C 82.371094 78.917969 82.621094 79.066406 82.898438 79.035156 C 83.125 79.011719 83.316406 78.875 83.417969 78.683594 L 124.324219 91.164062 C 124.324219 91.167969 124.324219 91.171875 124.324219 91.175781 C 124.324219 91.179688 124.324219 91.183594 124.324219 91.1875 C 124.324219 91.1875 124.324219 91.191406 124.324219 91.191406 C 124.324219 91.203125 124.324219 91.21875 124.324219 91.234375 C 124.324219 91.234375 124.324219 91.238281 124.324219 91.238281 C 124.324219 91.246094 124.324219 91.246094 124.324219 91.253906 C 124.324219 91.253906 124.324219 91.257812 124.324219 91.257812 C 124.324219 91.261719 124.324219 91.265625 124.324219 91.269531 C 124.324219 91.269531 124.324219 91.273438 124.324219 91.273438 C 124.324219 91.28125 124.324219 91.289062 124.324219 91.292969 C 124.324219 91.300781 124.324219 91.308594 124.324219 91.3125 C 124.324219 91.316406 124.324219 91.324219 124.324219 91.328125 C 124.324219 91.335938 124.328125 91.347656 124.332031 91.351562 C 124.332031 91.355469 124.332031 91.359375 124.332031 91.363281 L 104.167969 99.390625 C 104.089844 99.265625 103.96875 99.164062 103.8125 99.113281 C 103.503906 99.015625 103.175781 99.15625 103.027344 99.429688 L 60.136719 85.773438 C 60.136719 85.742188 60.140625 85.710938 60.140625 85.675781 C 60.140625 85.65625 60.136719 85.636719 60.136719 85.617188 Z M 60.058594 86.007812 L 102.949219 99.664062 C 102.910156 99.976562 103.097656 100.277344 103.410156 100.378906 C 103.492188 100.40625 103.578125 100.410156 103.65625 100.40625 L 107.875 116.363281 C 107.871094 116.363281 107.871094 116.367188 107.871094 116.367188 C 107.867188 116.371094 107.863281 116.371094 107.859375 116.375 C 107.847656 116.378906 107.835938 116.386719 107.828125 116.394531 C 107.824219 116.394531 107.820312 116.394531 107.816406 116.398438 C 107.804688 116.410156 107.785156 116.414062 107.773438 116.425781 C 107.765625 116.433594 107.761719 116.4375 107.753906 116.441406 C 107.742188 116.449219 107.738281 116.457031 107.726562 116.464844 C 107.722656 116.46875 107.722656 116.46875 107.722656 116.472656 C 107.710938 116.480469 107.699219 116.492188 107.6875 116.5 C 107.679688 116.511719 107.671875 116.523438 107.664062 116.53125 C 107.660156 116.542969 107.652344 116.546875 107.644531 116.558594 C 107.636719 116.566406 107.625 116.578125 107.617188 116.589844 C 107.617188 116.59375 107.617188 116.597656 107.613281 116.601562 C 107.605469 116.609375 107.597656 116.625 107.59375 116.636719 C 107.585938 116.648438 107.582031 116.652344 107.578125 116.664062 C 107.574219 116.671875 107.570312 116.679688 107.566406 116.691406 C 107.566406 116.691406 107.5625 116.695312 107.5625 116.699219 C 107.554688 116.714844 107.550781 116.734375 107.542969 116.753906 C 107.539062 116.761719 107.535156 116.773438 107.53125 116.777344 C 107.53125 116.785156 107.53125 116.789062 107.53125 116.792969 C 107.53125 116.792969 107.53125 116.796875 107.53125 116.796875 L 60.933594 113.714844 C 60.898438 113.417969 60.679688 113.191406 60.378906 113.140625 L 59.625 86.339844 C 59.808594 86.304688 59.96875 86.175781 60.058594 86.007812 Z M 60.222656 114.464844 C 60.558594 114.476562 60.832031 114.273438 60.910156 113.964844 L 107.507812 117.046875 C 107.507812 117.046875 107.507812 117.050781 107.507812 117.050781 C 107.507812 117.074219 107.511719 117.09375 107.519531 117.117188 C 107.519531 117.121094 107.519531 117.128906 107.523438 117.136719 C 107.523438 117.136719 107.527344 117.140625 107.527344 117.144531 C 107.527344 117.148438 107.527344 117.152344 107.53125 117.15625 C 107.53125 117.160156 107.535156 117.167969 107.539062 117.175781 C 107.546875 117.195312 107.550781 117.214844 107.5625 117.230469 C 107.570312 117.242188 107.574219 117.253906 107.574219 117.265625 C 107.574219 117.265625 107.578125 117.269531 107.578125 117.269531 C 107.582031 117.277344 107.589844 117.285156 107.59375 117.292969 C 107.597656 117.304688 107.601562 117.308594 107.609375 117.320312 C 107.617188 117.335938 107.628906 117.351562 107.636719 117.371094 C 107.640625 117.371094 107.644531 117.378906 107.648438 117.382812 C 107.652344 117.386719 107.65625 117.390625 107.660156 117.390625 C 107.660156 117.398438 107.667969 117.402344 107.671875 117.40625 C 107.6875 117.421875 107.699219 117.4375 107.71875 117.453125 C 107.722656 117.460938 107.730469 117.46875 107.738281 117.472656 C 107.738281 117.472656 107.742188 117.476562 107.742188 117.476562 C 107.742188 117.476562 107.742188 117.476562 107.746094 117.476562 C 107.753906 117.480469 107.761719 117.484375 107.765625 117.492188 C 107.777344 117.5 107.792969 117.511719 107.808594 117.519531 C 107.820312 117.527344 107.828125 117.539062 107.84375 117.542969 C 107.847656 117.546875 107.847656 117.546875 107.851562 117.546875 C 107.859375 117.550781 107.871094 117.554688 107.875 117.558594 C 107.882812 117.5625 107.890625 117.5625 107.894531 117.566406 C 107.910156 117.574219 107.917969 117.582031 107.933594 117.582031 L 106.265625 127.578125 C 105.992188 127.585938 105.746094 127.753906 105.648438 128.027344 C 105.632812 128.078125 105.621094 128.132812 105.621094 128.183594 L 1.976562 139.121094 L 59.71875 114.167969 C 59.828125 114.335938 60.003906 114.445312 60.222656 114.464844 Z M 106.511719 127.625 L 108.175781 117.628906 C 108.183594 117.628906 108.191406 117.625 108.199219 117.625 C 108.210938 117.625 108.230469 117.625 108.242188 117.625 C 108.242188 117.625 108.246094 117.625 108.246094 117.625 C 108.25 117.625 108.25 117.625 108.253906 117.625 C 108.273438 117.621094 108.292969 117.617188 108.3125 117.613281 C 108.316406 117.613281 108.320312 117.613281 108.328125 117.609375 C 108.332031 117.609375 108.335938 117.605469 108.335938 117.605469 C 108.339844 117.605469 108.34375 117.605469 108.347656 117.601562 C 108.359375 117.601562 108.363281 117.597656 108.371094 117.59375 C 108.375 117.59375 108.378906 117.589844 108.382812 117.589844 C 108.398438 117.585938 108.40625 117.582031 108.421875 117.574219 C 108.441406 117.5625 108.460938 117.558594 108.476562 117.546875 C 108.492188 117.539062 108.507812 117.527344 108.523438 117.519531 C 108.535156 117.511719 108.546875 117.503906 108.558594 117.496094 C 108.566406 117.488281 108.570312 117.480469 108.582031 117.476562 C 108.59375 117.46875 108.605469 117.457031 108.617188 117.445312 L 138.589844 138.949219 L 106.9375 128.332031 C 106.980469 128.035156 106.808594 127.738281 106.511719 127.625 Z M 106.511719 127.625 " fill-opacity="1" fill-rule="nonzero"/></g></g></g></g></svg>